<?xml version="1.0" encoding="UTF-8" standalone="no"?>
<!-- Created with Inkscape (http://www.inkscape.org/) -->

<svg
    version="1.1"
    id="svg353"
    width="300"
    height="400"
    viewBox="0 0 600.75348 746.73754"
    xmlns="http://www.w3.org/2000/svg"
>
    <path
        d="m -173.51356,437.0902 c -25.2156,-4.2653 -46.74177,-20.17453 -57.87773,-42.77542 -6.08698,-12.35374 -6.67991,-18.48068 -8.79366,-90.8675 -1.24663,-42.69129 -2.13885,-88.61678 -1.98272,-102.05665 0.15614,-13.43984 0.26592,-44.81149 0.24391,-69.71475 -0.0216,-24.90325 -0.0395,-56.274888 -0.0395,-69.714734 0,-13.439863 0.018,-44.811506 0.0395,-69.714752 0.0216,-24.903263 -0.0692,-56.274906 -0.20349,-69.714752 -0.13386,-13.439863 0.75833,-58.071662 1.98272,-99.181812 2.07741,-69.75267 2.6595,-75.55678 8.71397,-86.8874 8.27294,-15.4824 22.60319,-29.81265 36.91237,-36.91238 10.82336,-5.37018 20.75486,-5.59486 279.821983,-6.3303 214.133187,-0.60788 269.068527,-0.025 270.909197,2.87484 1.26983,2.00053 2.32863,168.16516 2.35285,369.254739 0.0396,328.584161 -0.41361,366.075001 -4.47359,370.135011 -4.04414,4.04414 -31.23514,4.48215 -259.453871,4.17948 C -45.576549,439.47785 -166.24495,438.3197 -173.5136,437.0902 Z m 517.74928,-66.0843 c 0,-50.18551 -0.41021,-54.62186 -5.05067,-54.62186 -4.63993,0 -4.96516,3.50656 -3.99907,43.11643 0.57837,23.71402 0.23914,46.35335 -0.75375,50.30962 l -1.80538,7.19318 H 81.461827 -169.70318 l -15.42117,-8.04498 c -20.15488,-10.51447 -29.74621,-26.61122 -29.46605,-49.45173 0.28829,-23.50756 10.17663,-39.01282 31.86984,-49.97334 8.27069,-4.17875 35.31336,-4.64852 267.599213,-4.64852 142.119347,0 259.172097,-0.77333 260.117277,-1.71848 7.91918,-7.91917 -5.92704,-8.33046 -258.807709,-7.68738 -172.139358,0.43779 -261.588561,1.67669 -268.813681,3.72322 -12.82339,3.63228 -29.2973,17.35711 -35.80104,29.82677 -17.23414,33.04309 -4.67855,72.61746 28.24408,89.02348 l 15.20192,7.57545 H 84.627591 344.23572 Z m -28.74834,33.29574 c 0,-0.6613 -0.78529,-3.24863 -1.745,-5.74967 -1.57214,-4.09693 -25.77893,-4.54739 -244.360994,-4.54739 -133.438786,0 -242.615966,1.03495 -242.615966,2.29988 0,8.9405 6.97552,9.19947 247.810766,9.19947 132.501164,0 240.911194,-0.54102 240.911194,-1.20229 z m -5.74967,-23.23381 v -7.18709 H 63.631717 c -223.235327,0 -245.943787,0.4226 -244.360957,4.54738 0.95975,2.50106 1.74499,5.73524 1.74499,7.18709 0,1.58234 97.880772,2.6397 244.360963,2.6397 H 309.73771 Z m 0,-20.12384 V 353.7569 H 63.939291 -181.85909 v 7.18709 7.18709 H 63.939291 309.73771 Z m 0,-20.12385 v -7.18709 H 65.376713 c -146.480191,0 -244.360963,1.05737 -244.360963,2.63969 0,1.45186 -0.78528,4.68605 -1.74499,7.18709 -1.58283,4.12479 21.12563,4.5474 244.360957,4.5474 H 309.73771 Z m 4.00467,-17.48414 c 0.95976,-2.50106 1.745,-5.70652 1.745,-7.12327 0,-1.49655 -100.17317,-2.61564 -239.069345,-2.67078 -219.128435,-0.0872 -239.510705,0.30455 -244.360965,4.694 -2.91041,2.63388 -5.29165,5.88207 -5.29165,7.21816 0,1.33608 109.17718,2.42927 242.615966,2.42927 218.582064,0 242.788854,-0.45045 244.360994,-4.54738 z m -507.2121,-31.68422 11.61063,-5.12262 v -57.23535 -57.23534 l -12.21804,7.1351 c -6.71993,3.9243 -16.09908,12.57116 -20.84256,19.21523 l -8.6245,12.08013 -0.90319,53.57852 -0.90318,53.57849 10.13509,-10.43579 c 5.57431,-5.73966 15.3599,-12.74096 21.74575,-15.55837 z M 260.8655,274.90293 c 0,-9.45948 0.63077,-10.0413 15.60484,-14.39439 21.4137,-6.22513 40.16276,-24.97421 46.38791,-46.3879 4.15876,-14.3056 5.23751,-15.60483 12.95697,-15.60483 h 8.4205 V -5.4153447 -209.34648 l -9.04296,-0.90085 c -8.14141,-0.81106 -9.38169,-2.242 -12.44083,-14.3535 -6.11597,-24.21384 -24.1434,-42.01883 -49.66837,-49.05544 -10.6533,-2.93686 -12.21806,-4.39637 -12.21806,-11.39647 v -8.02825 H 45.252864 -170.35975 v 67.05751 67.05749 l 7.18709,6.75192 c 9.75297,9.16244 9.75297,23.77008 0,32.80883 -7.10974,6.58909 -7.18709,7.17398 -7.18709,54.353918 0,47.039582 0.0985,47.791632 7.18709,54.880234 9.5232,9.5232015 9.5232,22.622684 0,32.145885 -7.0886,7.088603 -7.18709,7.840653 -7.18709,54.880235 0,47.179938 0.0773,47.764828 7.18709,54.353918 9.76051,9.04573 9.78285,23.9935 0.0494,33.2258 -7.1269,6.76014 -7.1375,6.85386 -7.18709,63.54811 l -0.0494,56.77799 H 45.252864 260.8655 Z M 344.23572,247.388 c 0,-29.64953 -0.81044,-37.37286 -3.92167,-37.37286 -2.15694,0 -6.23949,6.0691 -9.07239,13.48687 -7.19502,18.83993 -24.47924,36.56054 -43.24775,44.33962 -10.8065,4.47907 -15.62906,8.08879 -15.62906,11.69855 0,4.76589 3.13031,5.22067 35.93544,5.22067 h 35.93543 z M -211.863,178.61792 c 9.7779,-8.5851 15.47413,-11.70631 36.47229,-19.98459 9.25124,-3.64723 11.00644,-15.83758 2.87484,-19.96642 -19.33759,-9.81877 -61.26715,32.35247 -60.9351,61.2863 l 0.099,8.62451 5.46957,-10.34845 c 3.00826,-5.69164 10.21701,-14.51674 16.01944,-19.61135 z m 21.5398,-50.57079 8.46411,-1.85904 V 78.981712 c 0,-25.963472 -0.71107,-47.206348 -1.58018,-47.206348 -4.2749,0 -17.93969,9.008966 -24.68384,16.273642 -14.85586,16.002453 -16.8585,23.630132 -16.8585,64.210674 v 37.6473 l 13.09715,-10.00042 c 7.20342,-5.5002 16.90599,-10.83696 21.56126,-11.85943 z m -17.64711,-95.502427 c 4.79149,-3.749912 15.53744,-9.129818 23.87989,-11.955339 13.56331,-4.593828 15.26262,-6.088329 16.06159,-14.126026 0.7497,-7.5420415 -0.26457,-9.2793645 -6.3021,-10.7946987 -9.49546,-2.3831958 -33.81766,10.7790267 -43.5874,23.5878287 -7.98475,10.468546 -15.6948,29.883317 -15.67548,39.472578 0.01,4.729853 1.91767,3.23487 8.46202,-6.62971 4.64733,-7.00515 12.37,-15.80472 17.16148,-19.554633 z m 17.91269,-45.845687 8.19853,-1.639712 v -48.586673 -48.586651 l -7.90579,4.14078 c -10.1408,5.31144 -24.64915,20.738034 -30.58263,32.518246 -3.55512,7.058273 -4.6341,17.930971 -4.6341,46.697085 V 8.738722 l 13.36273,-10.200005 c 7.34949,-5.610014 17.05206,-10.937863 21.56126,-11.839701 z m -19.33675,-95.100456 c 4.25892,-3.35008 13.81374,-8.33278 21.23294,-11.0727 18.13535,-6.69739 21.11838,-9.3861 20.10316,-18.11967 -2.18532,-18.79949 -38.52501,-3.45998 -54.91816,23.18173 -4.52336,7.35124 -8.90804,18.994327 -9.74373,25.873499 l -1.51944,12.507645 8.55087,-13.139756 c 4.70297,-7.226846 12.03543,-15.880688 16.29436,-19.230748 z m -4.15587,-33.67836 c 3.67617,-3.91311 12.31057,-9.26357 19.18755,-11.88991 l 12.5036,-4.77517 v -66.06127 -66.06127 l -7.90579,5.02336 c -13.14687,8.35355 -21.08557,16.611 -27.59071,28.69851 -5.60649,10.41769 -6.27689,16.70477 -7.12713,66.83991 -0.53705,31.66903 0.17079,55.34058 1.65501,55.34058 1.42644,0 5.6013,-3.20163 9.27747,-7.11474 z m 557.78596,-116.50317 v -37.37285 h -35.93543 c -32.42618,0 -35.93544,0.49558 -35.93544,5.07489 0,3.43571 4.41069,6.6904 13.65546,10.07653 21.02494,7.70089 39.67247,27.24129 46.58323,48.81366 1.89946,5.92934 5.29377,10.78063 7.54287,10.78063 3.32616,0 4.08931,-6.97468 4.08931,-37.37286 z"
    />
</svg>
